<svg id="Capa_1" data-name="Capa 1" xmlns="http://www.w3.org/2000/svg" viewBox="0 0 296.99 299.99"><defs><style>.cls-1{fill:#fff;}</style></defs><title>brandicon</title><path class="cls-1" d="M273.49,188a4.25,4.25,0,0,1-4.25-4.25V35.29A7.26,7.26,0,0,0,262,28H104.49a7.26,7.26,0,0,0-7.25,7.25v124.5a4.25,4.25,0,0,1-8.5,0V35.29a15.77,15.77,0,0,1,15.75-15.75H262a15.77,15.77,0,0,1,15.75,15.75v148.5A4.25,4.25,0,0,1,273.49,188Z"/><path class="cls-1" d="M262,280H244a15.77,15.77,0,0,1-15.75-15.75v-55A15.77,15.77,0,0,1,244,193.54h18a15.77,15.77,0,0,1,15.75,15.75v55A15.77,15.77,0,0,1,262,280Zm-18-78a7.26,7.26,0,0,0-7.25,7.25v55a7.26,7.26,0,0,0,7.25,7.25h18a7.26,7.26,0,0,0,7.25-7.25v-55A7.26,7.26,0,0,0,262,202H244Z"/><path class="cls-1" d="M176,280H35a15.77,15.77,0,0,1-15.75-15.75v-73A15.77,15.77,0,0,1,35,175.54H176a15.77,15.77,0,0,1,15.75,15.75v73A15.77,15.77,0,0,1,176,280ZM35,184a7.26,7.26,0,0,0-7.25,7.25v73A7.26,7.26,0,0,0,35,271.54H176a7.26,7.26,0,0,0,7.25-7.25v-73A7.26,7.26,0,0,0,176,184H35Z"/><path class="cls-1" d="M242.91,82.9h-46a4.5,4.5,0,0,1,0-9h46A4.5,4.5,0,0,1,242.91,82.9Z"/><path class="cls-1" d="M162.91,123.9h-35a4.5,4.5,0,0,1,0-9h35A4.5,4.5,0,1,1,162.91,123.9Z"/><path class="cls-1" d="M187.91,150.9h-60a4.5,4.5,0,0,1,0-9h60A4.5,4.5,0,1,1,187.91,150.9Z"/><path class="cls-1" d="M242.91,150.9h-36a4.5,4.5,0,0,1,0-9h36A4.5,4.5,0,1,1,242.91,150.9Z"/><path class="cls-1" d="M166.91,168.9h-39a4.5,4.5,0,0,1,0-9h39A4.5,4.5,0,1,1,166.91,168.9Z"/><path class="cls-1" d="M242.91,168.9h-59a4.5,4.5,0,0,1,0-9h59A4.5,4.5,0,1,1,242.91,168.9Z"/><path class="cls-1" d="M242.91,185.9h-36a4.5,4.5,0,0,1,0-9h36A4.5,4.5,0,1,1,242.91,185.9Z"/><path class="cls-1" d="M127.91,212.9h-27a4.5,4.5,0,0,1,0-9h27A4.5,4.5,0,1,1,127.91,212.9Z"/><path class="cls-1" d="M139.91,228.9h-39a4.5,4.5,0,0,1,0-9h39A4.5,4.5,0,1,1,139.91,228.9Z"/><path class="cls-1" d="M162.91,255.9h-62a4.5,4.5,0,0,1,0-9h62A4.5,4.5,0,1,1,162.91,255.9Z"/><path class="cls-1" d="M142,88.58a16.75,16.75,0,1,1,16.75-16.75A16.77,16.77,0,0,1,142,88.58Zm0-24.5a7.75,7.75,0,1,0,7.75,7.75A7.76,7.76,0,0,0,142,64.08Z"/><path class="cls-1" d="M63,236.29a16.75,16.75,0,1,1,16.75-16.75A16.77,16.77,0,0,1,63,236.29Zm0-24.5a7.75,7.75,0,1,0,7.75,7.75A7.76,7.76,0,0,0,63,211.79Z"/><circle class="cls-1" cx="252.99" cy="236.79" r="8.92"/><path class="cls-1" d="M212.91,203.9h-6a4.5,4.5,0,0,1,0-9h6A4.5,4.5,0,1,1,212.91,203.9Z"/><path class="cls-1" d="M212.91,281.9h-6a4.5,4.5,0,0,1,0-9h6A4.5,4.5,0,1,1,212.91,281.9Z"/><path class="cls-1" d="M49,167.14a17.52,17.52,0,0,1-17.5-17.5,4.5,4.5,0,0,1,9,0,8.5,8.5,0,0,0,17,0,4.5,4.5,0,1,1,9,0A17.52,17.52,0,0,1,49,167.14Z"/><path class="cls-1" d="M62.41,151.9h-26c-2.49,0-5.5-3-5.5-5.5V42.79a5.19,5.19,0,0,1,1.39-2.68l14-18.5a4.75,4.75,0,0,1,3.86-1.81,4.61,4.61,0,0,1,3.69,2l11.78,18.5a4.25,4.25,0,0,1,.28,2.48V146.4C65.91,148.88,64.89,151.9,62.41,151.9Zm-22.5-9h17V44.15l-8-12-9,12.16V142.9Z"/><path class="cls-1" d="M61.91,51.9h-24a4.5,4.5,0,0,1,0-9h24A4.5,4.5,0,0,1,61.91,51.9Z"/></svg>