<svg id="Capa_1" data-name="Capa 1" xmlns="http://www.w3.org/2000/svg" viewBox="0 0 296.99 299.99"><defs><style>.cls-1{fill:#fff;}</style></defs><title>brandicon</title><path class="cls-1" d="M92,96H47a4.5,4.5,0,1,1,0-9H92A4.5,4.5,0,0,1,92,96Z"/><path class="cls-1" d="M125,96H103a4.5,4.5,0,0,1,0-9h22A4.5,4.5,0,0,1,125,96Z"/><path class="cls-1" d="M75,114H47a4.5,4.5,0,1,1,0-9H75A4.5,4.5,0,0,1,75,114Z"/><path class="cls-1" d="M125,114H89a4.5,4.5,0,0,1,0-9h36A4.5,4.5,0,0,1,125,114Z"/><path class="cls-1" d="M92,131H47a4.5,4.5,0,1,1,0-9H92A4.5,4.5,0,0,1,92,131Z"/><path class="cls-1" d="M125,131H103a4.5,4.5,0,0,1,0-9h22A4.5,4.5,0,0,1,125,131Z"/><path class="cls-1" d="M199,175H171a4.5,4.5,0,1,1,0-9h28A4.5,4.5,0,0,1,199,175Z"/><path class="cls-1" d="M249,175H213a4.5,4.5,0,1,1,0-9h36A4.5,4.5,0,0,1,249,175Z"/><path class="cls-1" d="M216,192H171a4.5,4.5,0,1,1,0-9h45A4.5,4.5,0,0,1,216,192Z"/><path class="cls-1" d="M249,192H227a4.5,4.5,0,1,1,0-9h22A4.5,4.5,0,0,1,249,192Z"/><path class="cls-1" d="M199,210H171a4.5,4.5,0,1,1,0-9h28A4.5,4.5,0,0,1,199,210Z"/><path class="cls-1" d="M249,210H213a4.5,4.5,0,1,1,0-9h36A4.5,4.5,0,0,1,249,210Z"/><path class="cls-1" d="M168.49,75.15a12,12,0,0,1-12-12v-24a4.5,4.5,0,1,1,9,0v24a3,3,0,0,0,6,0v-39a4.5,4.5,0,1,1,9,0v39A12,12,0,0,1,168.49,75.15Z"/><path class="cls-1" d="M135.86,234.66H34.13A16.15,16.15,0,0,1,18,218.52V35.79A16.15,16.15,0,0,1,34.13,19.65H135.86A16.15,16.15,0,0,1,152,35.79V218.52A16.15,16.15,0,0,1,135.86,234.66ZM34.13,28.65A7.14,7.14,0,0,0,27,35.79V218.52a7.14,7.14,0,0,0,7.13,7.13H135.86a7.14,7.14,0,0,0,7.13-7.13V35.79a7.14,7.14,0,0,0-7.13-7.13H34.13Z"/><path class="cls-1" d="M262.86,234.66H159.13A16.15,16.15,0,0,1,143,218.52V35.79a16.15,16.15,0,0,1,16.13-16.13H262.86A16.15,16.15,0,0,1,279,35.79V218.52A16.15,16.15,0,0,1,262.86,234.66Zm-103.73-206A7.14,7.14,0,0,0,152,35.79V218.52a7.14,7.14,0,0,0,7.13,7.13H262.86a7.14,7.14,0,0,0,7.13-7.13V35.79a7.14,7.14,0,0,0-7.13-7.13H159.13Z"/><path class="cls-1" d="M246.62,129.65H203.86a4.5,4.5,0,0,1,0-9h38.07a4.49,4.49,0,0,1-1.36-1L231,110a1.43,1.43,0,0,0-1-.43h0a1.43,1.43,0,0,0-1,.43l-4.64,4.74a10.36,10.36,0,0,1-7.4,3.13h-0.05a10.36,10.36,0,0,1-7.38-3.06l-0.55-.55a1.44,1.44,0,0,0-2,0l-12.65,12.42a10.38,10.38,0,0,1-7.31,3H173.06a10.45,10.45,0,0,1-10.44-10.44V94.61a10.45,10.45,0,0,1,10.44-10.44h73.56a10.45,10.45,0,0,1,10.44,10.44v24.6A10.45,10.45,0,0,1,246.62,129.65Zm-1-9h1a1.44,1.44,0,0,0,1.44-1.44V118A4.51,4.51,0,0,1,245.63,120.65ZM173.06,93.18a1.44,1.44,0,0,0-1.44,1.44v24.6a1.44,1.44,0,0,0,1.44,1.44H187a1.43,1.43,0,0,0,1-.41l12.65-12.42a10.47,10.47,0,0,1,14.69.07l0.55,0.55a1.43,1.43,0,0,0,1,.42h0a1.43,1.43,0,0,0,1-.43l4.64-4.73a10.36,10.36,0,0,1,7.45-3.13h0a10.36,10.36,0,0,1,7.45,3.13L247,113.4a4.49,4.49,0,0,1,1.06,1.75V94.61a1.44,1.44,0,0,0-1.44-1.44H173.06Z"/><path class="cls-1" d="M122.14,209.27H79.38a4.5,4.5,0,0,1,0-9h38.07a4.49,4.49,0,0,1-1.36-1l-9.53-9.71a1.44,1.44,0,0,0-2,0l-4.64,4.74a10.36,10.36,0,0,1-7.4,3.13H92.41A10.36,10.36,0,0,1,85,194.42l-0.55-.55a1.44,1.44,0,0,0-2,0L69.81,206.28a10.38,10.38,0,0,1-7.31,3H48.58a10.45,10.45,0,0,1-10.44-10.44V174.23a10.45,10.45,0,0,1,10.44-10.44h73.56a10.45,10.45,0,0,1,10.44,10.44v24.61A10.45,10.45,0,0,1,122.14,209.27Zm-1-9h1a1.44,1.44,0,0,0,1.44-1.44v-1.26A4.51,4.51,0,0,1,121.15,200.27ZM48.58,172.79a1.44,1.44,0,0,0-1.44,1.44v24.61a1.44,1.44,0,0,0,1.44,1.44H62.5a1.43,1.43,0,0,0,1-.41l12.65-12.42a10.47,10.47,0,0,1,14.69.07l0.55,0.55a1.43,1.43,0,0,0,1,.42h0a1.43,1.43,0,0,0,1-.43l4.64-4.74a10.36,10.36,0,0,1,7.45-3.13h0a10.36,10.36,0,0,1,7.45,3.13l9.53,9.71a4.49,4.49,0,0,1,1.06,1.75V174.23a1.44,1.44,0,0,0-1.44-1.44H48.58Z"/><path class="cls-1" d="M90.82,280.33a17.5,17.5,0,0,1,0-35,4.5,4.5,0,1,1,0,9,8.5,8.5,0,0,0,0,17A4.5,4.5,0,0,1,90.82,280.33Z"/><path class="cls-1" d="M197.67,281H94.49c-2.49,0-5.5-3-5.5-5.5v-26c0-2.49,3-3.5,5.5-3.5H197.67c1,0,1.91-.19,2.68.39l18.5,13.5a4.27,4.27,0,0,1,1.81,3.61,4.39,4.39,0,0,1-2,3.57l-18.5,12.72A5.16,5.16,0,0,1,197.67,281ZM98,272h98.33l12-8-12.16-9H98v17Z"/><path class="cls-1" d="M193.49,279.5A4.5,4.5,0,0,1,189,275V251a4.5,4.5,0,0,1,9,0v24A4.5,4.5,0,0,1,193.49,279.5Z"/></svg>