<svg id="Capa_1" data-name="Capa 1" xmlns="http://www.w3.org/2000/svg" viewBox="0 0 296.99 299.99"><defs><style>.cls-1{fill:#fff;}</style></defs><title>brandicon</title><path class="cls-1" d="M178,98H161a4.5,4.5,0,0,1,0-9h17A4.5,4.5,0,0,1,178,98Z"/><path class="cls-1" d="M213,98H196a4.5,4.5,0,0,1,0-9h17A4.5,4.5,0,0,1,213,98Z"/><path class="cls-1" d="M247,98H230a4.5,4.5,0,0,1,0-9h17A4.5,4.5,0,0,1,247,98Z"/><path class="cls-1" d="M100.33,162.24a16.75,16.75,0,1,1,16.75-16.75A16.77,16.77,0,0,1,100.33,162.24Zm0-24.5a7.75,7.75,0,1,0,7.75,7.75A7.76,7.76,0,0,0,100.33,137.74Z"/><circle class="cls-1" cx="51.99" cy="45.66" r="8.92"/><circle class="cls-1" cx="77.33" cy="45.66" r="8.92"/><circle class="cls-1" cx="103.99" cy="45.66" r="8.92"/><path class="cls-1" d="M263,280.49H34a16,16,0,0,1-16-16V84.28a4.5,4.5,0,0,1,9,0V264.49a7,7,0,0,0,7,7H263a7,7,0,0,0,7-7v-229a7,7,0,0,0-7-7H34a7,7,0,0,0-7,7v21a7,7,0,0,0,7,7h221.5a4.5,4.5,0,0,1,0,9H34a16,16,0,0,1-16-16v-21a16,16,0,0,1,16-16H263a16,16,0,0,1,16,16v229A16,16,0,0,1,263,280.49Z"/><path class="cls-1" d="M219,193.83H136.16a4.5,4.5,0,0,1,0-9H219a7,7,0,0,0,7-7V130.16a7,7,0,0,0-7-7H76.49a7,7,0,0,0-7,7v47.67a7,7,0,0,0,7,7h27a7,7,0,0,0,4.9-2l24.51-24.06a16.05,16.05,0,0,1,22.52.1l1.07,1.07a7,7,0,0,0,4.95,2h0a7,7,0,0,0,5-2.1l9-9.17a15.88,15.88,0,0,1,11.42-4.8h0a15.88,15.88,0,0,1,11.42,4.79l18.46,18.8a4.5,4.5,0,0,1-6.42,6.3L191.83,157a7,7,0,0,0-5-2.1h0a7,7,0,0,0-5,2.1l-9,9.17a15.89,15.89,0,0,1-11.35,4.8h-0.08a15.89,15.89,0,0,1-11.31-4.69L149,165.23a7,7,0,0,0-9.85,0l-24.51,24.06a15.91,15.91,0,0,1-11.21,4.58h-27a16,16,0,0,1-16-16V130.16a16,16,0,0,1,16-16H219a16,16,0,0,1,16,16v47.67A16,16,0,0,1,219,193.83Z"/><circle class="cls-1" cx="130.93" cy="206.68" r="4.44"/><circle class="cls-1" cx="148.41" cy="206.68" r="4.44"/><circle class="cls-1" cx="165.91" cy="206.68" r="4.44"/><path class="cls-1" d="M110,262.36a4.5,4.5,0,0,1-4.5-4.5V244.49a7,7,0,0,0-7-7h-22a7,7,0,0,0-7,7v13.36a4.5,4.5,0,0,1-9,0V244.49a16,16,0,0,1,16-16h22a16,16,0,0,1,16,16v13.36A4.5,4.5,0,0,1,110,262.36Z"/><path class="cls-1" d="M171,262.36a4.5,4.5,0,0,1-4.5-4.5V244.49a7,7,0,0,0-7-7h-22a7,7,0,0,0-7,7v13.36a4.5,4.5,0,0,1-9,0V244.49a16,16,0,0,1,16-16h22a16,16,0,0,1,16,16v13.36A4.5,4.5,0,0,1,171,262.36Z"/><path class="cls-1" d="M230.49,262.36a4.5,4.5,0,0,1-4.5-4.5V244.49a7,7,0,0,0-7-7H197a7,7,0,0,0-7,7v13.36a4.5,4.5,0,0,1-9,0V244.49a16,16,0,0,1,16-16h22a16,16,0,0,1,16,16v13.36A4.5,4.5,0,0,1,230.49,262.36Z"/></svg>