<svg id="Capa_1" data-name="Capa 1" xmlns="http://www.w3.org/2000/svg" viewBox="0 0 15.66 15.66"><defs><style>.cls-1{fill:#14233a;}.cls-2{fill:#fff;}</style></defs><title>Logo</title><circle class="cls-1" cx="7.83" cy="7.83" r="7.83"/><path class="cls-2" d="M6.93,7.52a1,1,0,0,0,.88-1.1A1.47,1.47,0,0,0,6.18,4.89h-3v5.76h3A1.71,1.71,0,0,0,8,8.95S8.09,7.52,6.93,7.52ZM4.5,5.91H6.18s0.41,0,.41.6S6.35,7.2,6.08,7.2H4.5V5.91ZM6.1,9.63H4.5V8.09H6.18a0.66,0.66,0,0,1,.61.79A0.65,0.65,0,0,1,6.1,9.63Z"/><rect class="cls-2" x="9.21" y="5.22" width="2.38" height="0.71"/><path class="cls-2" d="M10.45,6.35A2.17,2.17,0,0,0,8.24,8.57a2,2,0,0,0,2.21,2.2s2,0.11,2-1.53h-1s0,0.62-.92.62a0.94,0.94,0,0,1-1-1h3S12.79,6.35,10.45,6.35Zm-1,1.73a1,1,0,0,1,1-.89,0.86,0.86,0,0,1,.88.89H9.46Z"/></svg>