<svg id="Capa_1" data-name="Capa 1" xmlns="http://www.w3.org/2000/svg" viewBox="0 0 15.66 15.66"><defs><style>.cls-1{fill:#14233a;}.cls-2{fill:#fff;}</style></defs><title>Logo</title><circle class="cls-1" cx="7.83" cy="7.83" r="7.83"/><path class="cls-2" d="M7.83,3.05a4.78,4.78,0,1,0,4.78,4.78A4.78,4.78,0,0,0,7.83,3.05h0ZM11,5.31a4,4,0,0,1,.89,2.46A10,10,0,0,0,10,7.59a7.55,7.55,0,0,0-.92.05L9,7.45C8.92,7.26,8.83,7.07,8.74,6.88A5.5,5.5,0,0,0,11,5.31h0ZM7.83,3.8a4,4,0,0,1,2.66,1A4.61,4.61,0,0,1,8.4,6.23,21.84,21.84,0,0,0,6.92,3.9a4,4,0,0,1,.91-0.1h0Zm-1.74.39a26.11,26.11,0,0,1,1.48,2.3A15.29,15.29,0,0,1,3.92,7h0A4,4,0,0,1,6.09,4.19h0ZM3.79,7.83s0-.07,0-0.1H3.9a15.12,15.12,0,0,0,4-.57C8,7.38,8.14,7.59,8.24,7.81l-0.13,0a6.46,6.46,0,0,0-3.3,2.66,4,4,0,0,1-1-2.67h0Zm4,4A4,4,0,0,1,5.36,11a5.58,5.58,0,0,1,3.17-2.5h0a16.82,16.82,0,0,1,.85,3,4,4,0,0,1-1.56.31h0Zm2.29-.71a17.64,17.64,0,0,0-.77-2.83,5.29,5.29,0,0,1,.81-0.06,6,6,0,0,1,1.66.23,4,4,0,0,1-1.7,2.66h0Zm0,0"/></svg>