<svg id="Capa_1" data-name="Capa 1" xmlns="http://www.w3.org/2000/svg" viewBox="0 0 15.66 15.66"><defs><style>.cls-1{fill:#14233a;}.cls-2{fill:#fff;}</style></defs><title>Logo</title><circle class="cls-1" cx="7.83" cy="7.83" r="7.83"/><path class="cls-2" d="M12.33,8.45v3.12H10.52V8.66a1,1,0,0,0-1.84-.57,1.24,1.24,0,0,0-.06.44v3H6.81s0-4.92,0-5.43H8.62V6.92h0v0A1.79,1.79,0,0,1,10.25,6c1.19,0,2.08.78,2.08,2.44h0ZM4.92,3.52a0.94,0.94,0,1,0,0,1.88h0a0.94,0.94,0,1,0,0-1.88h0ZM4,11.57H5.81V6.14H4v5.43Zm0,0"/></svg>