<svg id="Capa_1" data-name="Capa 1" xmlns="http://www.w3.org/2000/svg" viewBox="0 0 15.66 15.66"><defs><style>.cls-1{fill:#fff;}.cls-2{fill:#14233a;}</style></defs><title>Logo</title><circle class="cls-1" cx="7.83" cy="7.83" r="7.83"/><path class="cls-2" d="M10.94,4.54A1.23,1.23,0,0,1,12.22,6c0,0.06,0,.13,0,0.19a6.43,6.43,0,0,1-1.79,3.27q-1.79,2.16-3,2.17-0.77,0-1.29-1.33L5.74,9.08,5.39,7.87Q5,6.55,4.54,6.55a2.74,2.74,0,0,0-.68.38L3.44,6.44l0.65-.54,0.64-.53A3.11,3.11,0,0,1,6,4.64H6.14A1.25,1.25,0,0,1,7.28,5.94q0.13,0.75.21,1.22c0.05,0.31.1,0.53,0.14,0.66q0.3,1.24.65,1.25a1.64,1.64,0,0,0,.83-0.81A3.28,3.28,0,0,0,9.7,7a1.37,1.37,0,0,0,0-.15,0.51,0.51,0,0,0-.6-0.54,1.88,1.88,0,0,0-.65.13,2.39,2.39,0,0,1,2.38-1.91h0.1Zm0,0"/></svg>