<svg id="Capa_1" data-name="Capa 1" xmlns="http://www.w3.org/2000/svg" viewBox="0 0 38.86 38.86"><defs><style>.cls-1{fill:#fff;}.cls-2{fill:#14233a;}</style></defs><title>Logo</title><circle class="cls-1" cx="19.43" cy="19.43" r="19.29"/><path class="cls-2" d="M19.32,28.62H14.45V24L12.7,21.55,8.63,28.62H3.31L9.87,17.71,4.39,10.24H9.7l4.64,6.84h0.11V10.24h4.87V28.62Z"/><path class="cls-2" d="M21.07,10.24h4.87V24.55h7v4.07H21.07V10.24Z"/><path class="cls-2" d="M21.07,10.24H28.2a13,13,0,0,1,2.81.3,6.32,6.32,0,0,1,2.35,1,5.16,5.16,0,0,1,1.6,1.9,6.38,6.38,0,0,1,.59,2.9,6.45,6.45,0,0,1-.61,2.91,5.63,5.63,0,0,1-1.63,2A7,7,0,0,1,31,22.42a10,10,0,0,1-2.77.38H25.94v5.83H21.07V10.24ZM28,19a3,3,0,0,0,2.14-.68,2.57,2.57,0,0,0,.69-1.92,2,2,0,0,0-.74-1.75A3.66,3.66,0,0,0,28,14.09h-2V19h2Z"/></svg>